<svg height="512pt" viewBox="0 0 512 512" width="512pt" xmlns="http://www.w3.org/2000/svg"><clipPath id="a"><path d="M0 0h512v512H0z"/></clipPath><linearGradient id="b" gradientUnits="userSpaceOnUse" x1="256" x2="256" y1="-6.888" y2="521.184"><stop offset=".013" stop-color="#c6ff00"/><stop offset=".983" stop-color="#90cc00"/></linearGradient><g clip-path="url(#a)"><circle cx="256" cy="256" fill="url(#b)" r="256"/><circle cx="256" cy="256" fill="#79b700" r="224"/><path d="M398.413 371.39c7.448 7.45 7.448 19.582 0 27.021-7.457 7.453-19.526 7.453-26.974 0l-55.336-55.278 6.781-6.788 13.509-13.454 6.733-6.779z" fill="#656d78"/><path d="M336.393 322.891l-3.38 3.366 55.269 55.267c5.662 5.653 6.993 13.999 4.063 20.955a18.925 18.925 0 006.068-4.068c7.448-7.444 7.448-19.575 0-27.021l-55.287-55.278z" fill="#434a54"/><path d="M189.154 279.873c5.294 0 9.548 4.29 9.548 9.549 0 5.252-4.254 9.549-9.548 9.549-5.257 0-9.549-4.297-9.549-9.549 0-5.259 4.292-9.549 9.549-9.549zM195.895 220.597a9.544 9.544 0 010 13.5c-3.709 3.712-9.758 3.749-13.502 0-3.714-3.709-3.709-9.791 0-13.5 3.714-3.711 9.789-3.711 13.502 0z" fill="#ac92ec"/><path d="M336.393 322.891l-13.509 13.454-26.308-26.306a88.01 88.01 0 007.02-6.446 98.044 98.044 0 006.443-7.066z" fill="#ccd1d9"/><path d="M303.591 141.548c42.447 42.458 44.643 110.005 6.448 154.979a95.87 95.87 0 01-6.443 7.066 88.96 88.96 0 01-7.02 6.446c-45.027 38.195-112.53 36.004-155.033-6.446-44.724-44.726-44.724-117.304.007-162.045 44.787-44.732 117.309-44.732 162.041 0zM293.473 293.48c39.151-39.152 39.151-102.648 0-141.801-39.15-39.155-102.648-39.155-141.798 0-39.144 39.153-39.144 102.649-.005 141.801a97.331 97.331 0 008.842 7.826c36.286 28.705 87.838 28.705 124.133 0a98.15 98.15 0 008.828-7.826z" fill="#e6e9ed"/><path d="M293.473 151.675c39.151 39.153 39.151 102.648 0 141.801a96.316 96.316 0 01-8.833 7.826v-97.818l-19.097-19.107h-85.938l-19.097 19.107v97.818a97.495 97.495 0 01-8.843-7.826c-39.139-39.153-39.139-102.648.005-141.801 39.155-39.156 102.648-39.156 141.803 0z" fill="#ac92ec"/><path d="M284.64 260.776v40.526c-36.294 28.702-87.847 28.702-124.132 0v-40.526zm-85.938 28.646c0-5.259-4.254-9.549-9.548-9.549-5.257 0-9.549 4.29-9.549 9.549 0 5.252 4.292 9.549 9.549 9.549 5.294 0 9.548-4.297 9.548-9.549zM284.64 198.709v57.292H160.508v-57.292zm-85.938 28.646c0-5.259-4.254-9.548-9.548-9.548-5.257 0-9.549 4.289-9.549 9.548 0 5.253 4.292 9.549 9.549 9.549 5.294 0 9.548-4.296 9.548-9.549z" fill="#656d78"/><g fill="#434a54"><path d="M284.636 198.709H160.503l19.097-19.097h85.938zM160.508 256.001H284.64v4.775H160.508zM241.671 236.904a4.773 4.773 0 01-4.264-6.907l4.775-9.549c1.184-2.359 4.049-3.299 6.408-2.133a4.775 4.775 0 012.133 6.406l-4.774 9.549a4.77 4.77 0 01-4.278 2.634zM260.769 236.904a4.772 4.772 0 01-4.264-6.907l4.774-9.549c1.184-2.359 4.045-3.299 6.409-2.133a4.776 4.776 0 012.133 6.406l-4.775 9.549a4.768 4.768 0 01-4.277 2.634zM241.671 298.971a4.707 4.707 0 01-2.128-.502c-2.359-1.172-3.315-4.047-2.136-6.406l4.775-9.549c1.184-2.359 4.049-3.298 6.408-2.133a4.776 4.776 0 012.133 6.407l-4.774 9.548a4.77 4.77 0 01-4.278 2.635zM260.769 298.971a4.708 4.708 0 01-2.129-.502c-2.359-1.172-3.315-4.047-2.135-6.406l4.774-9.549c1.184-2.359 4.045-3.298 6.409-2.133a4.777 4.777 0 012.133 6.407l-4.775 9.548a4.77 4.77 0 01-4.277 2.635z"/></g></g></svg>